<svg width="233" height="175" viewBox="0 0 233 175" fill="none" xmlns="http://www.w3.org/2000/svg">
<path fill-rule="evenodd" clip-rule="evenodd" d="M66 79C70.5 74.6667 82.5 66 93.5 66C104.5 66 124 70.5 131 99C138 127.5 126.5 153.5 118 161.5C109.5 169.5 99.5 173.5 88.5 174C79.7 174.4 69.8333 171.5 66 170V174H39V81.0879L66 55.6758V79ZM85.5 79C77 80.5 69.8333 89 66 94V145.5C68 150.833 72.5 161.5 83.5 161.5C94.5 161.5 99.3333 152.5 101.5 148V84C98.5 81.5 94 77.5 85.5 79Z" fill="white"/>
<path d="M27 174H0V117.793L27 92.3818V174Z" fill="white"/>
<path fill-rule="evenodd" clip-rule="evenodd" d="M141.5 99C145 85.6667 155.5 62.5 192 62.5C228.5 62.5 232.5 80.5 232.5 93C232.5 105.5 221.5 121.5 215 122C209.8 122.4 191.833 122.167 183.5 122C183.5 122 178.769 122 174 126C169.231 130 168 135 168 135V151C171.479 157.262 173.97 159.735 180.5 163H191C197.989 160.67 201.692 156.738 204.5 150H227C223.5 153.167 215.3 160.3 210.5 163.5C204.5 167.5 195 172.5 185.5 172.5C176 172.5 158.5 165.5 151 157C143.5 148.5 140 130.5 140 120.5C140 111.3 141 102.333 141.5 99ZM205.5 90.5C205.5 79 196 73.5 187 73.5C178 73.5 171.314 79.2143 168 87.5V115.5C168 115.5 174.5 110 179 108.5C183.5 107 192 107.5 192 107.5C192 107.5 205.5 102 205.5 90.5Z" fill="white"/>
<path d="M27 75.2754L0 101.519V66L27 39V75.2754Z" fill="white"/>
<path d="M66 37.3682L39 63.6113V27L66 0V37.3682Z" fill="white"/>
</svg>
