<svg width="90" height="91" viewBox="0 0 90 91" fill="none" xmlns="http://www.w3.org/2000/svg">
<path d="M41.8228 24.5991H46.6901V74.8694H41.8228V24.5991Z" fill="#885446"/>
<path d="M41.8228 24.5991H46.6901V74.8694H41.8228V24.5991Z" fill="#885446"/>
<path d="M28.6631 44.509L28.6631 39.6442L59.8499 39.6442L59.8499 44.509L28.6631 44.509Z" fill="#885446"/>
<path d="M28.6631 44.509L28.6631 39.6442L59.8499 39.6442L59.8499 44.509L28.6631 44.509Z" fill="#885446"/>
<path d="M54.8334 78.7658C56.3569 79.0149 57.9839 79.2716 59.7268 79.3699C59.5218 79.5515 59.3142 79.7316 59.1037 79.9096C55.5308 82.9314 51.0672 85.451 44.5644 85.5897C41.3296 85.6587 38.7117 85.0874 36.4963 84.0652C34.9549 83.3539 33.6525 82.4443 32.5025 81.4462C34.0955 81.2971 35.6746 80.9751 37.1893 80.4798C37.4422 80.6197 37.702 80.7517 37.9697 80.8753C39.6499 81.6505 41.7303 82.1358 44.4894 82.077C48.8584 81.9838 52.1051 80.6483 54.8334 78.7658Z" fill="#885446"/>
<path d="M16.2515 64.3386C17.1692 64.8223 18.1222 65.2932 19.1038 65.7787C20.9908 66.7119 22.9819 67.6989 24.8345 68.8859C26.7925 70.1404 28.3376 71.7006 29.7051 73.2387C31.1339 74.8457 32.2414 76.2673 33.6022 77.6541C33.6322 77.6847 33.6624 77.7151 33.6925 77.7454C32.179 78.0174 30.6488 78.0946 29.1608 77.99C28.435 77.1499 27.7363 76.3135 27.0775 75.5725C25.7888 74.123 24.4946 72.8416 22.9374 71.8439C21.2748 70.7786 19.4576 69.8738 17.5448 68.9278C17.3375 68.8252 17.129 68.722 16.9196 68.6183C16.7112 67.7521 16.5586 66.8414 16.4327 65.8878C16.3671 65.3906 16.3086 64.8721 16.2515 64.3386Z" fill="#885446"/>
<path d="M76.0154 60.8419C76.2099 62.5667 76.0871 64.2172 75.6991 65.7485C73.0382 67.8975 70.2271 69.8381 68.0702 71.4549C66.6592 72.5127 65.323 73.8407 63.8569 75.3355C63.7145 75.4807 63.5709 75.6275 63.426 75.7755C61.7073 75.9846 60.0919 75.9157 58.4901 75.7337C59.4612 74.8096 60.394 73.8473 61.3467 72.8759C62.7987 71.3955 64.3075 69.8836 65.961 68.6441C69.0816 66.3049 72.8865 63.7486 76.0154 60.8419Z" fill="#885446"/>
<path d="M4.16815 44.9114C4.79662 46.4808 5.60851 47.9293 6.44785 49.2635C6.54524 49.4183 6.64464 49.5736 6.74519 49.7292C6.68116 50.9972 6.79091 52.4075 7.12826 54.0127C7.91339 57.7487 9.86131 60.1388 12.4633 62.038C12.6222 63.3845 12.7445 64.8089 12.9475 66.3474C12.9562 66.4129 12.9652 66.4785 12.9741 66.5442C12.5942 66.3242 12.2181 66.098 11.8483 65.8641C8.11541 63.5035 4.85351 60.2807 3.68807 54.7351C2.84729 50.7342 3.19278 47.598 4.16815 44.9114Z" fill="#885446"/>
<path d="M80.714 41.4907C82.6579 44.4052 84.6939 47.6503 84.772 51.8639C84.8456 55.8348 82.4787 59.3279 79.6213 62.2379C79.6082 61.1785 79.4992 60.0937 79.2852 58.9911C79.1908 58.5049 79.1075 58.0324 79.0348 57.5717C80.4814 55.6578 81.2915 53.7762 81.2573 51.929C81.2185 49.8356 80.5347 48.0225 79.4881 46.1571C79.8123 44.7189 80.2238 43.1889 80.7107 41.4858C80.7118 41.4874 80.7129 41.489 80.714 41.4907Z" fill="#885446"/>
<path d="M16.2722 25.4283C16.1262 26.7753 16.0377 28.0841 15.8557 29.5647C15.6099 31.5646 15.203 33.6586 14.1465 35.5134C13.2096 37.1582 12.1288 38.6262 11.1357 39.9813C10.1229 41.3632 9.20418 42.6241 8.45556 43.9751C8.29379 44.267 8.13971 44.5637 7.99493 44.8666C7.2776 43.4059 6.7581 41.9131 6.56457 40.3469C7.13231 39.498 7.7261 38.6879 8.29984 37.905C9.3122 36.5237 10.2709 35.2158 11.0916 33.775C11.7927 32.5442 12.135 31.0206 12.3667 29.1363C12.419 28.7109 12.4667 28.2471 12.5141 27.7587C13.6107 26.9621 14.8589 26.2031 16.2722 25.4283Z" fill="#885446"/>
<path d="M71.3729 23.061C72.9176 23.8759 74.1926 24.8246 75.2177 25.8635C75.2498 26.329 75.2791 26.7923 75.3114 27.2497C75.4228 28.8251 75.5761 30.4579 75.9861 32.2759C76.4265 34.2284 77.2185 35.9283 78.1793 37.5693C78.13 37.7636 78.0768 37.9585 78.0193 38.1538C77.6066 39.5558 77.227 40.8597 76.8881 42.0967C75.1988 39.5701 73.3736 36.6696 72.5569 33.0485C72.0881 30.9701 71.9203 29.1287 71.8049 27.4975C71.6868 25.8267 71.6271 24.4898 71.3973 23.1941C71.3894 23.1497 71.3812 23.1053 71.3729 23.061Z" fill="#885446"/>
<path d="M29.9203 7.95973C31.303 7.95772 32.6004 8.15367 33.8207 8.46464C32.3652 9.34573 31.1578 10.395 30.05 11.4739C30.0085 11.4735 29.967 11.4732 29.9254 11.4732C28.0359 11.476 25.8998 11.966 23.3996 13.3803C20.9063 14.7907 19.3667 16.3963 18.3659 18.0626C17.7983 19.0075 17.3867 20.0008 17.0789 21.0363C15.6309 21.7689 14.2706 22.4935 13.0111 23.2433C13.0246 23.154 13.0385 23.0652 13.0527 22.9769C13.4075 20.779 14.0263 18.4615 15.352 16.2543C16.6876 14.0304 18.6859 12.0095 21.6682 10.3225C24.6437 8.63935 27.3693 7.96344 29.9203 7.95973Z" fill="#885446"/>
<path d="M56.6131 10.7425C58.3849 10.2817 60.3027 9.98441 62.3516 10.2666C64.4227 10.5519 66.5055 11.4117 68.6395 13.0804C72.0118 15.7174 73.6264 18.1766 74.4253 20.7678C72.8742 19.7919 71.099 18.9667 69.1068 18.3142C68.4393 17.5299 67.582 16.7145 66.4734 15.8476C64.7766 14.5208 63.2653 13.9392 61.8717 13.7472C60.7991 13.5995 59.7255 13.6728 58.598 13.8912C57.3898 13.0219 56.2698 12.0929 55.1299 11.1702C55.6325 11.0143 56.1315 10.8677 56.6131 10.7425Z" fill="#885446"/>
<path d="M38.4955 10.2147C38.8647 10.3862 39.2264 10.5587 39.5797 10.7283C40.5004 11.1705 41.3488 11.5856 42.1941 11.9551C43.8859 12.6947 45.3652 13.1577 46.8253 13.1577C48.2407 13.1577 49.6284 12.8766 51.0768 12.4619C51.581 12.8337 52.0866 13.2312 52.6045 13.6479C53.1818 14.1124 53.7749 14.6019 54.3964 15.1011C53.8259 15.29 53.229 15.4856 52.5763 15.683C50.826 16.2124 48.9044 16.6712 46.8253 16.6712C44.635 16.6712 42.6216 15.9769 40.7854 15.1742C39.8667 14.7726 38.9423 14.3203 38.0573 13.8953C37.1576 13.4632 36.2803 13.0502 35.3868 12.6873C35.061 12.5549 34.7354 12.4303 34.4093 12.315C34.9898 11.8698 35.5951 11.4712 36.2529 11.1234C36.9196 10.771 37.6569 10.4626 38.4955 10.2147Z" fill="#885446"/>
<path d="M37.7848 7.39959C39.8156 6.54631 42.1671 6.07004 45.104 6.13094C51.2157 6.25767 54.5575 9.09233 57.6491 12.0664C60.7067 15.0078 63.5037 18.0326 68.7842 19.778C74.8248 21.7747 78.991 25.0956 81.164 29.213C83.3444 33.3444 83.3964 38.0518 81.6307 42.5393C78.4394 50.6501 77.0122 54.7285 77.7772 62.121C78.6785 70.8291 73.3448 77.9 65.9797 80.0681C58.8459 82.1681 53.5107 79.9903 49.0636 79.018C44.6617 78.0555 40.8839 78.1537 34.0729 79.7764C26.576 81.5626 17.9036 79.1739 13.7426 73.1666C11.6257 70.1104 11.182 66.7094 11.0487 63.5872C10.9087 60.3095 11.0837 57.5719 10.4975 54.935C10.2383 53.7692 9.63901 52.469 8.80841 50.9349C8.03316 49.5031 6.96241 47.7098 6.08534 45.9959C4.2691 42.4467 2.69148 38.1851 3.88108 33.3257C5.01581 28.6904 7.22484 25.6082 10.5045 23.2282C13.67 20.931 17.8155 19.3108 22.6744 17.4618C27.2389 15.7248 29.6744 13.1396 32.6738 10.6561C34.1544 9.43021 35.7697 8.24628 37.7848 7.39959ZM45.0311 9.64375C42.5375 9.59204 40.6808 9.99416 39.147 10.6386C37.5975 11.2897 36.2918 12.2229 34.9163 13.3618C32.2034 15.6081 29.1856 18.7436 23.9252 20.7453C18.9594 22.635 15.2857 24.1004 12.5699 26.0713C9.96832 27.9592 8.23403 30.3276 7.29566 34.1607C6.41215 37.7698 7.51599 41.0758 9.21499 44.3959C10.0955 46.1167 10.9909 47.5835 11.9 49.2626C12.7538 50.8395 13.5573 52.5009 13.929 54.1729C14.6046 57.2117 14.4416 60.6453 14.5608 63.4374C14.6866 66.385 15.0993 68.9526 16.6328 71.1667C19.7728 75.6999 26.8019 77.8968 33.2579 76.3586C40.3998 74.657 44.7394 74.4759 49.8147 75.5856C54.8448 76.6853 58.9608 78.4715 64.9867 76.6976C70.7813 74.9918 75.0017 69.45 74.2806 62.4825C73.4234 54.1993 75.1346 49.4489 78.3592 41.2534C79.8016 37.5878 79.6959 33.9618 78.0548 30.8522C76.4063 27.7286 73.0871 24.9009 67.6804 23.1138C61.5137 21.0754 58.1591 17.4336 55.2114 14.5979C52.2977 11.795 49.7808 9.74225 45.0311 9.64375Z" fill="#885446"/>
<path d="M17.4412 16.0856L20.1944 5.81532L22.8943 11.7613L17.4412 16.0856Z" fill="#885446"/>
<path d="M32.3135 13.7432L35.6485 21.2207L27.7616 16.2207L32.3135 13.7432Z" fill="#885446"/>
<path d="M39.2989 8.74324L45.4732 0.5V8.74324H39.2989Z" fill="#885446"/>
<path d="M52.5939 11.0856L68.7732 7.03153L63.996 12.2568L52.5939 11.0856Z" fill="#885446"/>
<path d="M58.3625 24.7793L63.4552 18.1126L58.1823 14.1036L58.3625 24.7793Z" fill="#885446"/>
<path d="M72.2884 22.0315L83.6004 24.9595L76.7051 27.6622L72.2884 22.0315Z" fill="#885446"/>
<path d="M69.6294 46.8964L79.1838 45.5901L76.7051 50.3198L69.6294 46.8964Z" fill="#885446"/>
<path d="M90 55.0946L82.1582 52.527L82.3836 47.6622L90 55.0946Z" fill="#885446"/>
<path d="M60.1652 65.9504L63.8608 73.2928L68.8633 70.0495L60.1652 65.9504Z" fill="#885446"/>
<path d="M74.3615 81.536L75.0376 70.5L70.1703 74.7793L74.3615 81.536Z" fill="#885446"/>
<path d="M29.0235 64.9144L26.9054 73.6081L22.7591 70.455L29.0235 64.9144Z" fill="#885446"/>
<path d="M14.647 81.2658L26.68 78.3378L20.8663 75.3198L14.647 81.2658Z" fill="#885446"/>
<path d="M41.8678 90.5L50.7011 82.2568L42.4987 82.3919L41.8678 90.5Z" fill="#885446"/>
<path d="M12.1232 52.2568L17.6214 53.7883L12.7992 56.7613L12.1232 52.2568Z" fill="#885446"/>
<path d="M7.70656 58.6532L1.8027 61.3108L14.016 66.536L7.70656 58.6532Z" fill="#885446"/>
<path d="M12.1232 35.6802L17.8017 41.1757L8.96845 39.3288L12.1232 35.6802Z" fill="#885446"/>
<path d="M0 28.3378L6.03906 31.4009L5.27291 37.0766L0 28.3378Z" fill="#885446"/>
</svg>
